<svg version="1.1" id="Layer_1" xmlns="http://www.w3.org/2000/svg" xmlns:xlink="http://www.w3.org/1999/xlink" x="0px" y="0px"
	 width="100%" viewBox="0 0 177 169" enable-background="new 0 0 177 169" xml:space="preserve">
<path fill="#000000" opacity="1.000000" stroke="none" 
	d="
M113.000000,170.000000 
	C75.333336,170.000000 38.166672,170.000000 1.000005,170.000000 
	C1.000003,113.666672 1.000003,57.333344 1.000002,1.000013 
	C59.999989,1.000008 118.999977,1.000008 177.999969,1.000004 
	C177.999985,57.333324 177.999985,113.666649 178.000000,169.999985 
	C156.500000,170.000000 135.000000,170.000000 113.000000,170.000000 
M26.196779,116.799873 
	C26.737602,117.561195 27.278427,118.322517 28.161324,119.663330 
	C30.068253,121.790634 31.975183,123.917931 34.239891,126.654945 
	C40.911026,134.118591 49.242180,138.679932 58.051212,140.198517 
	C59.310425,143.575226 59.614513,147.673645 61.315651,148.372787 
	C67.971779,151.108353 75.069336,152.769852 82.836319,155.024628 
	C87.912872,155.349930 92.986481,155.889420 98.066544,155.959274 
	C111.781593,156.147873 124.434685,152.480850 135.762497,144.692703 
	C148.795349,135.732300 159.032928,124.039215 167.023682,110.551926 
	C173.778244,99.151100 175.848907,86.393578 176.100647,73.189842 
	C176.291550,63.177223 171.426498,55.836155 165.140045,48.895370 
	C165.140045,48.895370 165.095551,48.913521 164.992310,48.388275 
	C164.701370,48.204094 164.410431,48.019913 163.780853,47.244949 
	C159.242630,42.883694 154.704407,38.522438 149.517197,33.824661 
	C147.680786,30.863211 145.844376,27.901760 143.928299,24.173786 
	C142.677322,23.912628 141.351822,23.250456 140.189499,23.466431 
	C136.866959,24.083801 133.650192,25.317373 130.318161,25.824791 
	C126.312729,26.434757 125.645447,28.980740 126.102226,32.196163 
	C126.513313,35.089947 127.306046,37.929508 127.302254,41.194096 
	C125.482460,44.957542 123.946037,48.891888 121.796295,52.456337 
	C109.099152,73.509232 90.920311,85.863007 65.897110,86.931389 
	C61.615292,87.114204 57.192326,87.239624 53.034233,86.401237 
	C44.138554,84.607613 35.380344,82.137856 26.552227,80.001228 
	C21.723269,78.832504 16.866573,77.778374 11.615730,76.075989 
	C10.223566,76.367653 8.834762,76.676628 7.438590,76.947639 
	C3.653590,77.682350 2.283689,81.276237 4.212087,85.869034 
	C5.764862,88.932800 7.317637,91.996559 8.989031,95.771790 
	C13.185072,103.822815 18.731916,110.752975 26.196779,116.799873 
z"/>
<path fill="#ADC53E" opacity="1.000000" stroke="none" 
	d="
M150.166168,34.161179 
	C154.704407,38.522438 159.242630,42.883694 164.067047,47.755913 
	C164.561996,48.526798 164.809448,48.742344 165.095551,48.913521 
	C165.095551,48.913521 165.140045,48.895370 165.125656,49.335480 
	C165.216629,50.764034 165.249741,51.766506 165.438461,52.738773 
	C167.447906,63.091160 168.224289,73.576241 166.389725,83.940056 
	C164.170807,96.475113 158.055237,107.333664 149.950165,117.086418 
	C136.315384,133.492981 119.291443,144.490082 98.384743,149.137390 
	C86.961952,151.676529 75.904373,149.381180 64.775169,145.747284 
	C64.027710,143.763351 63.500587,142.013062 63.438694,140.190216 
	C73.245430,138.826309 82.757584,138.254318 91.891396,136.087463 
	C108.709122,132.097748 122.999207,123.713913 132.779907,108.881355 
	C135.980255,104.027969 139.001480,99.055916 142.227890,94.220367 
	C153.988342,76.594482 153.441513,58.392834 144.950394,39.469521 
	C145.042862,38.521046 145.088623,37.887356 145.460098,37.164696 
	C147.245911,36.104210 148.706039,35.132694 150.166168,34.161179 
z"/>
<path fill="#AEC53E" opacity="1.000000" stroke="none" 
	d="
M33.882114,126.045235 
	C31.975183,123.917931 30.068253,121.790634 28.034885,118.989220 
	C28.657442,115.874741 29.406435,113.434364 30.544828,111.028275 
	C34.634708,111.976593 38.290020,113.211494 42.044762,113.739998 
	C50.712696,114.960030 59.491005,117.035645 68.111702,116.588539 
	C83.119141,115.810196 96.695541,109.498154 109.462898,101.883072 
	C120.688934,95.187302 128.824890,85.408058 135.172394,74.187256 
	C136.621063,75.636780 137.852783,76.829025 139.054657,78.405655 
	C133.347824,101.264725 119.294922,116.178947 97.782295,124.248405 
	C86.254883,128.572372 73.851982,130.529800 63.162163,136.721313 
	C63.582630,135.184052 63.983444,133.994919 64.294243,133.072861 
	C57.760139,131.611328 51.536507,130.245682 45.326553,128.820435 
	C41.500946,127.942406 37.696217,126.973396 33.882114,126.045235 
z"/>
<path fill="#93AE3F" opacity="1.000000" stroke="none" 
	d="
M64.995506,145.980942 
	C75.904373,149.381180 86.961952,151.676529 98.384743,149.137390 
	C119.291443,144.490082 136.315384,133.492981 149.950165,117.086418 
	C158.055237,107.333664 164.170807,96.475113 166.389725,83.940056 
	C168.224289,73.576241 167.447906,63.091160 165.438461,52.738773 
	C165.249741,51.766506 165.216629,50.764034 165.141693,49.353378 
	C171.426498,55.836155 176.291550,63.177223 176.100647,73.189842 
	C175.848907,86.393578 173.778244,99.151100 167.023682,110.551926 
	C159.032928,124.039215 148.795349,135.732300 135.762497,144.692703 
	C124.434685,152.480850 111.781593,156.147873 98.066544,155.959274 
	C92.986481,155.889420 87.912872,155.349930 82.281364,154.605759 
	C77.774956,152.830017 73.724350,151.698257 69.914413,150.020111 
	C68.044518,149.196487 66.621025,147.359375 64.995506,145.980942 
z"/>
<path fill="#DFDB5A" opacity="1.000000" stroke="none" 
	d="
M12.022387,76.672577 
	C16.866573,77.778374 21.723269,78.832504 26.552227,80.001228 
	C35.380344,82.137856 44.138554,84.607613 53.034233,86.401237 
	C57.192326,87.239624 61.615292,87.114204 65.897110,86.931389 
	C90.920311,85.863007 109.099152,73.509232 121.796295,52.456337 
	C123.946037,48.891888 125.482460,44.957542 128.010315,41.010948 
	C129.768494,40.960419 130.818619,41.093044 131.872681,41.608307 
	C130.180115,52.891567 125.925484,62.778339 119.754333,72.236092 
	C118.765343,73.120354 117.905777,73.678291 117.262657,74.423119 
	C104.743202,88.922432 87.841530,94.799271 69.751282,96.721832 
	C47.629654,99.072830 27.270483,93.411911 10.006985,78.706604 
	C10.803990,77.854111 11.413189,77.263344 12.022387,76.672577 
z"/>
<path fill="#AFC53E" opacity="1.000000" stroke="none" 
	d="
M9.819179,78.968346 
	C27.270483,93.411911 47.629654,99.072830 69.751282,96.721832 
	C87.841530,94.799271 104.743202,88.922432 117.262657,74.423119 
	C117.905777,73.678291 118.765343,73.120354 120.110657,72.251312 
	C121.832291,72.364983 122.967400,72.702759 123.996361,73.363632 
	C118.618279,82.068260 112.089668,89.231537 103.770775,94.713844 
	C93.156097,101.709099 81.768021,106.062653 68.823235,105.900909 
	C59.911327,105.789558 50.978947,105.856171 42.085789,106.366844 
	C38.090302,106.596275 34.168308,108.105621 30.047161,108.730286 
	C29.249887,108.171707 28.618420,107.917030 27.909401,107.344498 
	C21.511372,103.037872 15.190894,99.049095 8.870415,95.060326 
	C7.317637,91.996559 5.764862,88.932800 4.591700,85.427429 
	C6.587268,82.979996 8.203223,80.974174 9.819179,78.968346 
z"/>
<path fill="#95AE46" opacity="1.000000" stroke="none" 
	d="
M64.775169,145.747284 
	C66.621025,147.359375 68.044518,149.196487 69.914413,150.020111 
	C73.724350,151.698257 77.774956,152.830017 81.864624,154.508698 
	C75.069336,152.769852 67.971779,151.108353 61.315651,148.372787 
	C59.614513,147.673645 59.310425,143.575226 58.051212,140.198517 
	C49.242180,138.679932 40.911026,134.118591 34.061005,126.350090 
	C37.696217,126.973396 41.500946,127.942406 45.326553,128.820435 
	C51.536507,130.245682 57.760139,131.611328 64.294243,133.072861 
	C63.983444,133.994919 63.582630,135.184052 63.244217,136.986359 
	C63.195568,138.487305 63.084518,139.375031 62.973465,140.262772 
	C63.500587,142.013062 64.027710,143.763351 64.775169,145.747284 
z"/>
<path fill="#966E2C" opacity="1.000000" stroke="none" 
	d="
M131.868729,41.225670 
	C130.818619,41.093044 129.768494,40.960419 128.324417,40.810390 
	C127.306046,37.929508 126.513313,35.089947 126.102226,32.196163 
	C125.645447,28.980740 126.312729,26.434757 130.318161,25.824791 
	C133.650192,25.317373 136.866959,24.083801 140.189499,23.466431 
	C141.351822,23.250456 142.677322,23.912628 143.660278,24.707245 
	C142.030823,26.098930 140.669373,26.957153 138.747833,28.168444 
	C141.022400,31.404156 143.078384,34.328915 145.134399,37.253670 
	C145.088623,37.887356 145.042862,38.521046 144.647812,39.557095 
	C143.545410,40.323540 142.792313,40.687626 141.731018,41.003113 
	C141.010788,40.905964 140.598755,40.857418 139.918060,40.606083 
	C138.124863,40.663185 136.600357,40.923073 134.675201,41.159302 
	C133.472626,41.165653 132.670685,41.195663 131.868729,41.225670 
z"/>
<path fill="#95AD44" opacity="1.000000" stroke="none" 
	d="
M8.929724,95.416061 
	C15.190894,99.049095 21.511372,103.037872 27.787899,107.728714 
	C27.159771,111.041191 26.575590,113.651596 25.991409,116.262009 
	C18.731916,110.752975 13.185072,103.822815 8.929724,95.416061 
z"/>
<path fill="#593122" opacity="1.000000" stroke="none" 
	d="
M145.460083,37.164700 
	C143.078384,34.328915 141.022400,31.404156 138.747833,28.168444 
	C140.669373,26.957153 142.030823,26.098930 143.700119,25.090508 
	C145.844376,27.901760 147.680786,30.863211 149.841675,33.992920 
	C148.706039,35.132694 147.245911,36.104210 145.460083,37.164700 
z"/>
<path fill="#665A38" opacity="1.000000" stroke="none" 
	d="
M10.006985,78.706604 
	C8.203223,80.974174 6.587268,82.979996 4.648201,85.064285 
	C2.283689,81.276237 3.653590,77.682350 7.438590,76.947639 
	C8.834762,76.676628 10.223566,76.367653 11.819059,76.374283 
	C11.413189,77.263344 10.803990,77.854111 10.006985,78.706604 
z"/>
<path fill="#574F1B" opacity="1.000000" stroke="none" 
	d="
M26.094093,116.530945 
	C26.575590,113.651596 27.159771,111.041191 27.865452,108.046570 
	C28.618420,107.917030 29.249887,108.171707 29.984030,109.053955 
	C30.109613,110.119011 30.132521,110.556503 30.155428,110.993996 
	C29.406435,113.434364 28.657442,115.874741 27.863850,118.699478 
	C27.278427,118.322517 26.737602,117.561195 26.094093,116.530945 
z"/>
<path fill="#93AE3F" opacity="1.000000" stroke="none" 
	d="
M165.043930,48.650898 
	C164.809448,48.742344 164.561996,48.526798 164.236359,48.051304 
	C164.410431,48.019913 164.701370,48.204094 165.043930,48.650898 
z"/>
<path fill="#DDDB52" opacity="1.000000" stroke="none" 
	d="
M142.039200,41.051712 
	C142.792313,40.687626 143.545410,40.323540 144.601105,39.871883 
	C153.441513,58.392834 153.988342,76.594482 142.227890,94.220367 
	C139.001480,99.055916 135.980255,104.027969 132.779907,108.881355 
	C122.999207,123.713913 108.709122,132.097748 91.891396,136.087463 
	C82.757584,138.254318 73.245430,138.826309 63.438694,140.190216 
	C63.084518,139.375031 63.195568,138.487305 63.224564,137.334518 
	C73.851982,130.529800 86.254883,128.572372 97.782295,124.248405 
	C119.294922,116.178947 133.347824,101.264725 139.275024,78.113663 
	C140.007263,75.870140 140.528915,74.313927 140.964890,72.734085 
	C143.855072,62.261116 143.884445,51.687283 142.039200,41.051712 
z"/>
<path fill="#DEDB52" opacity="1.000000" stroke="none" 
	d="
M30.544830,111.028275 
	C30.132521,110.556503 30.109613,110.119011 30.149836,109.357857 
	C34.168308,108.105621 38.090302,106.596275 42.085789,106.366844 
	C50.978947,105.856171 59.911327,105.789558 68.823235,105.900909 
	C81.768021,106.062653 93.156097,101.709099 103.770775,94.713844 
	C112.089668,89.231537 118.618279,82.068260 124.265900,73.163834 
	C131.007629,63.112858 134.634674,52.676270 135.075836,41.182964 
	C136.600357,40.923073 138.124863,40.663185 139.883820,41.086365 
	C140.827164,52.879677 138.044312,63.429382 134.955475,73.929970 
	C128.824890,85.408058 120.688934,95.187302 109.462898,101.883072 
	C96.695541,109.498154 83.119141,115.810196 68.111702,116.588539 
	C59.491005,117.035645 50.712696,114.960030 42.044762,113.739998 
	C38.290020,113.211494 34.634708,111.976593 30.544830,111.028275 
z"/>
<path fill="#B5C53D" opacity="1.000000" stroke="none" 
	d="
M135.172394,74.187256 
	C138.044312,63.429382 140.827164,52.879677 140.152481,41.289154 
	C140.598755,40.857418 141.010788,40.905964 141.731018,41.003113 
	C143.884445,51.687283 143.855072,62.261116 140.964890,72.734085 
	C140.528915,74.313927 140.007263,75.870140 139.304871,77.729279 
	C137.852783,76.829025 136.621063,75.636780 135.172394,74.187256 
z"/>
<path fill="#B6C53E" opacity="1.000000" stroke="none" 
	d="
M134.675201,41.159302 
	C134.634674,52.676270 131.007629,63.112858 124.372055,72.840744 
	C122.967400,72.702759 121.832291,72.364983 120.340851,72.011993 
	C125.925484,62.778339 130.180115,52.891567 131.872681,41.608307 
	C132.670685,41.195663 133.472626,41.165653 134.675201,41.159302 
z"/>
</svg>